<svg width="401" height="90" viewBox="0 0 401 90" fill="none" xmlns="http://www.w3.org/2000/svg">
<path d="M38.13 24.7024H22.4443C20.3528 24.7024 18.5228 22.8691 18.5228 20.7738C18.5228 18.6786 20.3528 16.8452 22.4443 16.8452H38.13C40.2214 16.8452 42.0514 18.6786 42.0514 20.7738C42.0514 22.8691 40.2214 24.7024 38.13 24.7024Z" fill="#39134C"/>
<path d="M38.13 56.131H22.4443C20.3528 56.131 18.5228 54.2976 18.5228 52.2024C18.5228 50.1072 20.3528 48.2738 22.4443 48.2738H38.13C40.2214 48.2738 42.0514 50.1072 42.0514 52.2024C42.0514 54.2976 40.2214 56.131 38.13 56.131Z" fill="#39134C"/>
<path d="M38.13 71.8452H22.4443C20.3528 71.8452 18.5228 70.0119 18.5228 67.9167C18.5228 65.8214 20.3528 63.9881 22.4443 63.9881H38.13C40.2214 63.9881 42.0514 65.8214 42.0514 67.9167C42.0514 70.0119 40.2214 71.8452 38.13 71.8452Z" fill="#39134C"/>
<path d="M69.5014 40.4167H53.8157C51.7243 40.4167 49.8943 38.5833 49.8943 36.4881C49.8943 34.3929 51.7243 32.5595 53.8157 32.5595H69.5014C71.5928 32.5595 73.4228 34.3929 73.4228 36.4881C73.4228 38.5833 71.5928 40.4167 69.5014 40.4167Z" fill="#39134C"/>
<path d="M69.5014 56.131H53.8157C51.7243 56.131 49.8943 54.2976 49.8943 52.2024C49.8943 50.1072 51.7243 48.2738 53.8157 48.2738H69.5014C71.5928 48.2738 73.4228 50.1072 73.4228 52.2024C73.4228 54.2976 71.5928 56.131 69.5014 56.131Z" fill="#39134C"/>
<path d="M100.873 24.7024H85.1871C83.0957 24.7024 81.2657 22.8691 81.2657 20.7738C81.2657 18.6786 83.0957 16.8452 85.1871 16.8452H100.873C102.964 16.8452 104.794 18.6786 104.794 20.7738C104.794 22.8691 102.964 24.7024 100.873 24.7024Z" fill="#39134C"/>
<path d="M100.873 40.4167H85.1871C83.0957 40.4167 81.2657 38.5833 81.2657 36.4881C81.2657 34.3929 83.0957 32.5595 85.1871 32.5595H100.873C102.964 32.5595 104.794 34.3929 104.794 36.4881C104.794 38.5833 102.964 40.4167 100.873 40.4167Z" fill="#39134C"/>
<path d="M100.873 71.8452H85.1871C83.0957 71.8452 81.2657 70.0119 81.2657 67.9167C81.2657 65.8214 83.0957 63.9881 85.1871 63.9881H100.873C102.964 63.9881 104.794 65.8214 104.794 67.9167C104.794 70.0119 102.964 71.8452 100.873 71.8452Z" fill="#39134C"/>
<path d="M138.257 51.1548C138.257 59.5357 142.963 63.9881 148.453 63.9881C153.42 63.9881 158.91 59.7976 158.91 51.1548C158.91 42.5119 153.681 38.5833 148.714 38.5833C143.224 38.5833 138.257 42.5119 138.257 51.1548ZM138.257 16.8452V37.2738C140.61 33.6072 144.793 29.9405 151.851 29.9405C159.694 29.9405 169.106 36.4881 169.106 50.8929C169.106 65.8214 160.217 73.1548 151.067 73.1548C145.839 73.1548 141.394 70.7976 138.519 66.0833V71.8452H128.323V16.8452H138.257Z" fill="#39134C"/>
<path d="M184.007 51.4167C184.007 60.0595 189.236 63.9881 194.203 63.9881C199.693 63.9881 204.399 60.3214 204.399 51.4167C204.399 42.7738 199.693 38.5834 194.203 38.5834C189.497 38.5834 184.007 42.5119 184.007 51.4167ZM174.073 50.8929C174.073 36.75 183.223 29.6786 192.373 29.6786C197.34 29.6786 201.523 31.5119 204.66 35.9643V30.7262H214.594V71.8453H204.66V66.0834C201.784 70.0119 197.601 72.8929 191.066 72.8929C183.223 72.8929 174.073 66.0834 174.073 50.8929Z" fill="#39134C"/>
<path d="M234.201 48.5357V71.8453H224.267V30.9881H234.201V37.0119C237.077 31.7738 242.306 29.9405 246.75 29.9405C253.809 29.9405 260.606 33.6072 260.606 44.6072V71.8453H250.671V48.2738C250.671 41.4643 247.273 38.8453 242.829 38.8453C237.861 39.1072 234.201 41.9881 234.201 48.5357Z" fill="#39134C"/>
<path d="M270.017 16.8452V71.8452H279.951V61.8929L285.441 55.0833L296.683 71.8452H307.663L291.454 48.0119L305.571 30.9881H294.33L279.951 49.8452V16.8452H270.017Z" fill="#39134C"/>
<path d="M327.531 18.6786H317.336V71.8453H327.531V18.6786Z" fill="#39134C"/>
<path d="M357.073 18.6786H337.727V71.8453H357.073C371.451 71.8453 383.477 63.2024 383.477 45.131C383.477 27.3214 371.451 18.6786 357.073 18.6786ZM357.073 62.4167H347.923V28.1072H357.073C365.439 28.1072 372.497 33.6072 372.497 45.3929C372.497 56.9167 365.439 62.4167 357.073 62.4167Z" fill="#39134C"/>
</svg>
